#!OML:ASF F:\VICON\USERDATA\INSTALL\rory3\rory3.ASF
:FULLY-SPECIFIED
:DEGREES
1164
root 1.11003 18.1888 4.54136 -179.381 2.94275 181.762
lowerback 13.8572 -1.85382 -3.68453
upperback 2.99977 -2.59027 1.12734
thorax -4.3651 -1.09554 3.70138
lowerneck -14.117 -0.73471 -7.42344
upperneck 39.617 6.74991 -0.676911
head 16.5689 3.04415 2.64966
rclavicle 4.80065e-014 -1.8487e-014
rhumerus 41.6623 25.7073 -60.697
rradius 71.6482
rwrist 31.4457
rhand -36.5365 6.58893
rfingers 7.12502
rthumb -9.62751 -23.1711
lclavicle 4.80065e-014 -1.8487e-014
lhumerus 32.1847 -12.0868 77.6737
lradius 32.5339
lwrist -27.3619
lhand -24.1981 24.9439
lfingers 7.12502
lthumb 2.28607 54.9114
rfemur -71.2308 -1.76615 22.7838
rtibia 105.953
rfoot -16.8824 6.60855
rtoes -4.29704
lfemur -6.66568 5.75194 -22.5896
ltibia -2.94201e-014
lfoot 7.68305 -6.56278
ltoes -0.0304161
1165
root 1.11278 18.1878 4.56794 -179.421 2.8888 181.746
lowerback 13.7289 -1.91942 -3.88425
upperback 2.95426 -2.70486 1.2182
thorax -4.31825 -1.15389 3.92485
lowerneck -14.3201 -0.694806 -7.43042
upperneck 39.7796 7.00411 -0.920265
head 16.7188 3.11097 2.60573
rclavicle 1.46604e-014 -3.97569e-016
rhumerus 40.323 26.3711 -60.9656
rradius 73.0887
rwrist 31.2978
rhand -37.013 6.74838
rfingers 7.12502
rthumb -10.0872 -22.9898
lclavicle 1.46604e-014 -3.97569e-016
lhumerus 31.9874 -11.925 77.5907
lradius 32.4791
lwrist -27.5594
lhand -24.2617 24.793
lfingers 7.12502
lthumb 2.2246 54.7611
rfemur -70.6591 -1.93761 22.7806
rtibia 106.573
rfoot -16.8115 6.52683
rtoes -5.68267
lfemur -6.71086 5.80976 -22.5936
ltibia -2.38542e-015
lfoot 7.76445 -6.67679
ltoes 0.582276
1166
root 1.1179 18.1869 4.59087 -179.427 2.92329 181.797
lowerback 13.4947 -1.94762 -4.02793
upperback 2.90214 -2.76087 1.3116
thorax -4.22794 -1.1865 4.10479
lowerneck -14.6256 -0.673232 -7.18407
upperneck 40.0815 7.30636 -1.36582
head 16.9953 3.2068 2.45015
rclavicle -2.77802e-014 1.43125e-014
rhumerus 38.7656 27.0318 -61.3589
rradius 74.4376
rwrist 31.157
rhand -37.4318 6.81203
rfingers 7.12502
rthumb -10.4912 -22.9062
lclavicle -2.77802e-014 1.43125e-014
lhumerus 31.6503 -11.8223 77.5685
lradius 32.6438
lwrist -27.6478
lhand -24.2063 25.1647
lfingers 7.12502
lthumb 2.27808 55.1323
rfemur -70.0125 -1.99317 22.8697
rtibia 107.15
rfoot -16.2842 6.1611
rtoes -6.63669
lfemur -6.75667 5.96084 -22.499
ltibia -1.03368e-014
lfoot 7.87275 -6.68406
ltoes 1.60233
1167
root 1.12383 18.1822 4.61548 -179.372 2.88354 181.793
lowerback 13.2082 -1.98588 -4.18594
upperback 2.83209 -2.83442 1.37377
thorax -4.12653 -1.22908 4.26026
lowerneck -14.6958 -0.66743 -7.17464
upperneck 40.2358 7.49298 -1.57442
head 17.1136 3.261 2.40293
rclavicle 1.67476e-014 3.77691e-015
rhumerus 37.0102 27.6013 -61.8475
rradius 75.6453
rwrist 31.2174
rhand -37.8611 7.15516
rfingers 7.12502
rthumb -10.9053 -22.5416
lclavicle 1.67476e-014 3.77691e-015
lhumerus 31.1937 -11.7926 77.4535
lradius 33.0265
lwrist -27.6912
lhand -23.9263 25.1803
lfingers 7.12502
lthumb 2.54858 55.1448
rfemur -69.3574 -2.09153 22.814
rtibia 107.751
rfoot -15.6175 6.40917
rtoes -5.38972
lfemur -6.89923 6.02862 -22.5036
ltibia -3.18055e-015
lfoot 7.93815 -6.78019
ltoes 1.52597
1168
root 1.12963 18.1728 4.64212 -179.344 2.81805 181.722
lowerback 13.0209 -2.05068 -4.30362
upperback 2.71573 -2.94931 1.33921
thorax -4.13082 -1.28978 4.30292
lowerneck -14.5647 -0.613524 -7.21169
upperneck 40.2723 7.64005 -1.61861
head 17.1 3.32318 2.41585
rclavicle 2.57426e-014 5.96354e-015
rhumerus 35.0327 28.1551 -62.5954
rradius 76.8796
rwrist 31.3938
rhand -37.8715 7.94761
rfingers 7.12502
rthumb -10.9153 -21.7487
lclavicle 2.57426e-014 5.96354e-015
lhumerus 30.5725 -12.0413 76.997
lradius 33.7171
lwrist -27.5295
lhand -23.4909 25.7891
lfingers 7.12502
lthumb 2.96904 55.7481
rfemur -68.5746 -2.2274 22.6176
rtibia 108.349
rfoot -15.3105 7.10107
rtoes -3.97997
lfemur -7.04131 6.06578 -22.6053
ltibia -4.77083e-015
lfoot 7.98523 -6.98241
ltoes 1.01187
1169
root 1.1365 18.1617 4.66888 -179.341 2.79491 181.678
lowerback 12.8473 -2.06177 -4.41731
upperback 2.69609 -2.97894 1.33365
thorax -4.04747 -1.30827 4.35792
lowerneck -14.7463 -0.602026 -7.21009
upperneck 40.3192 7.73235 -1.72644
head 17.1801 3.33826 2.39308
rclavicle 8.49804e-015 -2.38542e-015
rhumerus 33.2233 28.5253 -63.2068
rradius 78.0004
rwrist 31.6138
rhand -37.8836 9.24749
rfingers 7.12502
rthumb -10.927 -20.4482
lclavicle 8.49804e-015 -2.38542e-015
lhumerus 30.0756 -12.2158 76.7267
lradius 34.489
lwrist -27.6299
lhand -22.8468 25.7266
lfingers 7.12502
lthumb 3.59109 55.6761
rfemur -67.7253 -2.34781 22.5254
rtibia 108.872
rfoot -14.9278 7.17545
rtoes -4.25097
lfemur -7.15245 6.15384 -22.6326
ltibia 9.54166e-015
lfoot 8.07916 -7.04508
ltoes 1.6706
